<?xml version="1.0" encoding="utf-8"?>
<svg xmlns="http://www.w3.org/2000/svg" width="16" height="16" fill="currentColor" class="bi bi-terminal" viewBox="0 0 16 16" xmlns:bx="https://boxy-svg.com"><defs><bx:export><bx:file format="svg"/></bx:export></defs><ellipse style="stroke: rgb(255, 255, 255); fill: rgb(255, 255, 255);" cx="8" cy="8" rx="7.548" ry="7.316"/><path d="M 3.7 2.968 C 2.91 2.968 2.268 3.611 2.268 4.406 L 2.268 11.595 C 2.268 12.39 2.91 13.033 3.7 13.033 L 12.3 13.033 C 13.09 13.033 13.732 12.39 13.732 11.595 L 13.732 4.406 C 13.732 3.611 13.09 2.968 12.3 2.968 L 3.7 2.968 Z M 12.3 3.688 C 12.695 3.688 13.015 4.007 13.015 4.406 L 13.015 11.595 C 13.015 11.992 12.695 12.313 12.3 12.313 L 3.7 12.313 C 3.305 12.313 2.984 11.992 2.984 11.595 L 2.984 4.406 C 2.984 4.007 3.305 3.688 3.7 3.688 L 12.3 3.688 Z" style="stroke: rgb(0, 0, 0);"/><path d="M 7.545 10.057 C 7.545 9.805 7.748 9.599 7.999 9.599 L 10.735 9.599 C 10.987 9.599 11.189 9.805 11.189 10.057 C 11.189 10.309 10.987 10.515 10.735 10.515 L 7.999 10.515 C 7.748 10.515 7.545 10.309 7.545 10.057 M 5.59 5.619 C 5.412 5.441 5.122 5.441 4.945 5.619 C 4.767 5.796 4.767 6.087 4.945 6.265 L 6.445 7.77 L 4.945 9.276 C 4.767 9.456 4.767 9.744 4.945 9.924 C 5.122 10.103 5.412 10.103 5.59 9.924 L 7.413 8.094 C 7.498 8.01 7.546 7.893 7.546 7.77 C 7.546 7.649 7.498 7.534 7.413 7.449 L 5.59 5.619 Z" style="stroke: rgb(0, 0, 0);"/></svg>